# xmcd
#
# Track frame offsets:
#	150
#	13587
#	26930
#	42762
#	57223
#	79768
#	94290
#	116677
#	136697
#	156092
#	175613
#	187631
#	203794
#
# Disc length: 3044 seconds
#
# Revision: 2
# Processed by: cddbd v1.5.2PL0 Copyright (c) Steve Scherf et al.
# Submitted via: audiograbber 1.83.01
#
DISCID=9c0be20d
DTITLE=Ulli Möhring - Leben
DYEAR=2005
DGENRE=Country-Folk
TTITLE0=Am Ende des Tunnels
TTITLE1=carpe diem
TTITLE2=Withering Roses
TTITLE3=Leben neu entdeckt
TTITLE4=Was man Liebe nennt
TTITLE5=Gib niemals auf
TTITLE6=Trommeln in der Nacht
TTITLE7=Neubeginn
TTITLE8=Wieder ich
TTITLE9=Erinnerung
TTITLE10=Publikum
TTITLE11=Loslassen
TTITLE12=Gemeinsam sind wir stark
EXTD=
EXTT0=
EXTT1=
EXTT2=
EXTT3=
EXTT4=
EXTT5=
EXTT6=
EXTT7=
EXTT8=
EXTT9=
EXTT10=
EXTT11=
EXTT12=
PLAYORDER=
